<mxfile host="app.diagrams.net" agent="Mozilla/5.0 (X11; Linux x86_64) AppleWebKit/537.36 (KHTML, like Gecko) Chrome/127.0.0.0 Safari/537.36" version="24.7.6">
  <diagram name="Page-1" id="Yd0-pa9OQ1h92lX0j2Xm">
    <mxGraphModel dx="1509" dy="794" grid="1" gridSize="10" guides="1" tooltips="1" connect="1" arrows="1" fold="1" page="1" pageScale="1" pageWidth="850" pageHeight="1100" math="0" shadow="0">
      <root>
        <mxCell id="0" />
        <mxCell id="1" parent="0" />
        <mxCell id="75jFnsoG7yitBAdSgV0w-1" value="&lt;font style=&quot;font-size: 20px;&quot;&gt;Portfolio Server&lt;/font&gt;" style="rounded=1;whiteSpace=wrap;html=1;" vertex="1" parent="1">
          <mxGeometry x="150" y="40" width="550" height="40" as="geometry" />
        </mxCell>
        <mxCell id="75jFnsoG7yitBAdSgV0w-2" value="&lt;font style=&quot;font-size: 20px;&quot;&gt;Navigation&lt;/font&gt;&lt;div style=&quot;font-size: 20px;&quot;&gt;&lt;font style=&quot;font-size: 20px;&quot;&gt;API&lt;/font&gt;&lt;/div&gt;" style="rounded=0;whiteSpace=wrap;html=1;" vertex="1" parent="1">
          <mxGeometry x="365" y="170" width="120" height="60" as="geometry" />
        </mxCell>
        <mxCell id="75jFnsoG7yitBAdSgV0w-6" value="" style="endArrow=none;html=1;rounded=0;entryX=0.25;entryY=1;entryDx=0;entryDy=0;exitX=0.5;exitY=0;exitDx=0;exitDy=0;" edge="1" parent="1" source="75jFnsoG7yitBAdSgV0w-10" target="75jFnsoG7yitBAdSgV0w-2">
          <mxGeometry width="50" height="50" relative="1" as="geometry">
            <mxPoint x="276.4000000000001" y="317.53999999999996" as="sourcePoint" />
            <mxPoint x="580" y="310" as="targetPoint" />
          </mxGeometry>
        </mxCell>
        <mxCell id="75jFnsoG7yitBAdSgV0w-8" value="" style="endArrow=none;html=1;rounded=0;entryX=0.75;entryY=1;entryDx=0;entryDy=0;exitX=0.5;exitY=0;exitDx=0;exitDy=0;" edge="1" parent="1" target="75jFnsoG7yitBAdSgV0w-2">
          <mxGeometry width="50" height="50" relative="1" as="geometry">
            <mxPoint x="570" y="320" as="sourcePoint" />
            <mxPoint x="610" y="240" as="targetPoint" />
          </mxGeometry>
        </mxCell>
        <mxCell id="75jFnsoG7yitBAdSgV0w-10" value="Menu" style="swimlane;fontStyle=0;childLayout=stackLayout;horizontal=1;startSize=30;horizontalStack=0;resizeParent=1;resizeParentMax=0;resizeLast=0;collapsible=1;marginBottom=0;whiteSpace=wrap;html=1;" vertex="1" parent="1">
          <mxGeometry x="210" y="320" width="140" height="150" as="geometry">
            <mxRectangle x="210" y="320" width="70" height="30" as="alternateBounds" />
          </mxGeometry>
        </mxCell>
        <mxCell id="75jFnsoG7yitBAdSgV0w-11" value="Home" style="text;strokeColor=none;fillColor=none;align=left;verticalAlign=middle;spacingLeft=4;spacingRight=4;overflow=hidden;points=[[0,0.5],[1,0.5]];portConstraint=eastwest;rotatable=0;whiteSpace=wrap;html=1;" vertex="1" parent="75jFnsoG7yitBAdSgV0w-10">
          <mxGeometry y="30" width="140" height="30" as="geometry" />
        </mxCell>
        <mxCell id="75jFnsoG7yitBAdSgV0w-12" value="About" style="text;strokeColor=none;fillColor=none;align=left;verticalAlign=middle;spacingLeft=4;spacingRight=4;overflow=hidden;points=[[0,0.5],[1,0.5]];portConstraint=eastwest;rotatable=0;whiteSpace=wrap;html=1;" vertex="1" parent="75jFnsoG7yitBAdSgV0w-10">
          <mxGeometry y="60" width="140" height="30" as="geometry" />
        </mxCell>
        <mxCell id="75jFnsoG7yitBAdSgV0w-13" value="Works" style="text;strokeColor=none;fillColor=none;align=left;verticalAlign=middle;spacingLeft=4;spacingRight=4;overflow=hidden;points=[[0,0.5],[1,0.5]];portConstraint=eastwest;rotatable=0;whiteSpace=wrap;html=1;" vertex="1" parent="75jFnsoG7yitBAdSgV0w-10">
          <mxGeometry y="90" width="140" height="30" as="geometry" />
        </mxCell>
        <mxCell id="75jFnsoG7yitBAdSgV0w-25" value="Worlds" style="text;strokeColor=none;fillColor=none;align=left;verticalAlign=middle;spacingLeft=4;spacingRight=4;overflow=hidden;points=[[0,0.5],[1,0.5]];portConstraint=eastwest;rotatable=0;whiteSpace=wrap;html=1;" vertex="1" parent="75jFnsoG7yitBAdSgV0w-10">
          <mxGeometry y="120" width="140" height="30" as="geometry" />
        </mxCell>
        <mxCell id="75jFnsoG7yitBAdSgV0w-15" value="Submenu" style="swimlane;fontStyle=0;childLayout=stackLayout;horizontal=1;startSize=30;horizontalStack=0;resizeParent=1;resizeParentMax=0;resizeLast=0;collapsible=1;marginBottom=0;whiteSpace=wrap;html=1;" vertex="1" parent="1">
          <mxGeometry x="440" y="320" width="260" height="180" as="geometry" />
        </mxCell>
        <mxCell id="75jFnsoG7yitBAdSgV0w-16" value="1. About&lt;div&gt;2.&amp;nbsp;Events&lt;/div&gt;&lt;div&gt;3. Gallery&lt;/div&gt;" style="text;strokeColor=none;fillColor=none;align=left;verticalAlign=middle;spacingLeft=4;spacingRight=4;overflow=hidden;points=[[0,0.5],[1,0.5]];portConstraint=eastwest;rotatable=0;whiteSpace=wrap;html=1;" vertex="1" parent="75jFnsoG7yitBAdSgV0w-15">
          <mxGeometry y="30" width="260" height="50" as="geometry" />
        </mxCell>
        <mxCell id="75jFnsoG7yitBAdSgV0w-18" value="&lt;div&gt;1. Aider&lt;br&gt;&lt;/div&gt;&lt;div&gt;2.&amp;nbsp;&lt;span style=&quot;background-color: initial;&quot;&gt;Societal&lt;/span&gt;&lt;/div&gt;&lt;div&gt;3. Bargain&lt;/div&gt;" style="text;strokeColor=none;fillColor=none;align=left;verticalAlign=middle;spacingLeft=4;spacingRight=4;overflow=hidden;points=[[0,0.5],[1,0.5]];portConstraint=eastwest;rotatable=0;whiteSpace=wrap;html=1;" vertex="1" parent="75jFnsoG7yitBAdSgV0w-15">
          <mxGeometry y="80" width="260" height="100" as="geometry" />
        </mxCell>
        <mxCell id="75jFnsoG7yitBAdSgV0w-28" value="" style="endArrow=none;html=1;rounded=0;fontFamily=Helvetica;fontSize=12;fontColor=default;fontStyle=0;entryX=0;entryY=0.5;entryDx=0;entryDy=0;" edge="1" parent="1" source="75jFnsoG7yitBAdSgV0w-12" target="75jFnsoG7yitBAdSgV0w-16">
          <mxGeometry width="50" height="50" relative="1" as="geometry">
            <mxPoint x="580" y="440" as="sourcePoint" />
            <mxPoint x="630" y="390" as="targetPoint" />
          </mxGeometry>
        </mxCell>
        <mxCell id="75jFnsoG7yitBAdSgV0w-34" value="" style="rounded=0;whiteSpace=wrap;html=1;strokeColor=default;align=center;verticalAlign=middle;fontFamily=Helvetica;fontSize=12;fontColor=default;fontStyle=0;fillColor=default;" vertex="1" parent="1">
          <mxGeometry x="850" y="130" width="630" height="480" as="geometry" />
        </mxCell>
        <mxCell id="75jFnsoG7yitBAdSgV0w-35" value="&lt;h1 style=&quot;margin-top: 0px;&quot;&gt;Events&lt;/h1&gt;&lt;p&gt;Here are all kinds of it related or programming related events attended and all kinds of companies participated in the events there.&lt;/p&gt;" style="text;html=1;whiteSpace=wrap;overflow=hidden;rounded=0;fontFamily=Helvetica;fontSize=12;fontColor=default;fontStyle=0;" vertex="1" parent="1">
          <mxGeometry x="860" y="290" width="160" height="140" as="geometry" />
        </mxCell>
        <mxCell id="75jFnsoG7yitBAdSgV0w-36" value="&lt;h1 style=&quot;margin-top: 0px;&quot;&gt;About&lt;/h1&gt;&lt;p&gt;About will only contain something about the programmer.&lt;/p&gt;" style="text;html=1;whiteSpace=wrap;overflow=hidden;rounded=0;fontFamily=Helvetica;fontSize=12;fontColor=default;fontStyle=0;" vertex="1" parent="1">
          <mxGeometry x="860" y="150" width="160" height="100" as="geometry" />
        </mxCell>
        <mxCell id="75jFnsoG7yitBAdSgV0w-37" value="&lt;h1 style=&quot;margin-top: 0px;&quot;&gt;Gallery&lt;/h1&gt;&lt;p&gt;All the photos of these moments will be kept here.&lt;/p&gt;" style="text;html=1;whiteSpace=wrap;overflow=hidden;rounded=0;fontFamily=Helvetica;fontSize=12;fontColor=default;fontStyle=0;" vertex="1" parent="1">
          <mxGeometry x="1250" y="150" width="160" height="100" as="geometry" />
        </mxCell>
        <mxCell id="75jFnsoG7yitBAdSgV0w-38" value="&lt;h1 style=&quot;margin-top: 0px;&quot;&gt;Aider&lt;/h1&gt;&lt;p&gt;Any kind of programming related danger can be posted here with description of that danger. Others can see it and solve it if they want. It will be like a Facebook group&lt;/p&gt;" style="text;html=1;whiteSpace=wrap;overflow=hidden;rounded=0;fontFamily=Helvetica;fontSize=12;fontColor=default;fontStyle=0;" vertex="1" parent="1">
          <mxGeometry x="1250" y="290" width="220" height="120" as="geometry" />
        </mxCell>
        <mxCell id="75jFnsoG7yitBAdSgV0w-39" value="&lt;h1 style=&quot;margin-top: 0px;&quot;&gt;Societal&lt;/h1&gt;&lt;p&gt;Societal is a social media that is very similar to Facebook but slightly different. Where some will have numerical facilities the rest will not&lt;/p&gt;" style="text;html=1;whiteSpace=wrap;overflow=hidden;rounded=0;fontFamily=Helvetica;fontSize=12;fontColor=default;fontStyle=0;" vertex="1" parent="1">
          <mxGeometry x="860" y="470" width="220" height="120" as="geometry" />
        </mxCell>
        <mxCell id="75jFnsoG7yitBAdSgV0w-40" value="&lt;h1 style=&quot;margin-top: 0px;&quot;&gt;Bargain&lt;/h1&gt;&lt;p&gt;Bargain is for selling old or new products which will be similar to sale.com. But it&#39;s not all about selling software&lt;/p&gt;" style="text;html=1;whiteSpace=wrap;overflow=hidden;rounded=0;fontFamily=Helvetica;fontSize=12;fontColor=default;fontStyle=0;" vertex="1" parent="1">
          <mxGeometry x="1250" y="470" width="220" height="120" as="geometry" />
        </mxCell>
        <mxCell id="75jFnsoG7yitBAdSgV0w-41" value="" style="endArrow=none;html=1;rounded=0;fontFamily=Helvetica;fontSize=12;fontColor=default;fontStyle=0;exitX=1;exitY=0.5;exitDx=0;exitDy=0;entryX=0.003;entryY=0.412;entryDx=0;entryDy=0;entryPerimeter=0;" edge="1" parent="1" source="75jFnsoG7yitBAdSgV0w-25" target="75jFnsoG7yitBAdSgV0w-18">
          <mxGeometry width="50" height="50" relative="1" as="geometry">
            <mxPoint x="660" y="350" as="sourcePoint" />
            <mxPoint x="710" y="300" as="targetPoint" />
          </mxGeometry>
        </mxCell>
        <mxCell id="75jFnsoG7yitBAdSgV0w-42" value="NAVIGATION API" style="swimlane;fontStyle=0;childLayout=stackLayout;horizontal=1;startSize=30;horizontalStack=0;resizeParent=1;resizeParentMax=0;resizeLast=0;collapsible=1;marginBottom=0;whiteSpace=wrap;html=1;strokeColor=default;align=center;verticalAlign=middle;fontFamily=Helvetica;fontSize=12;fontColor=default;fillColor=default;" vertex="1" parent="1">
          <mxGeometry x="190" y="520" width="520" height="120" as="geometry" />
        </mxCell>
        <mxCell id="75jFnsoG7yitBAdSgV0w-43" value="name: string" style="text;strokeColor=none;fillColor=none;align=left;verticalAlign=middle;spacingLeft=4;spacingRight=4;overflow=hidden;points=[[0,0.5],[1,0.5]];portConstraint=eastwest;rotatable=0;whiteSpace=wrap;html=1;fontFamily=Helvetica;fontSize=12;fontColor=default;fontStyle=0;" vertex="1" parent="75jFnsoG7yitBAdSgV0w-42">
          <mxGeometry y="30" width="520" height="30" as="geometry" />
        </mxCell>
        <mxCell id="75jFnsoG7yitBAdSgV0w-44" value="url: string" style="text;strokeColor=none;fillColor=none;align=left;verticalAlign=middle;spacingLeft=4;spacingRight=4;overflow=hidden;points=[[0,0.5],[1,0.5]];portConstraint=eastwest;rotatable=0;whiteSpace=wrap;html=1;fontFamily=Helvetica;fontSize=12;fontColor=default;fontStyle=0;" vertex="1" parent="75jFnsoG7yitBAdSgV0w-42">
          <mxGeometry y="60" width="520" height="30" as="geometry" />
        </mxCell>
        <mxCell id="75jFnsoG7yitBAdSgV0w-45" value="submenu: string" style="text;strokeColor=none;fillColor=none;align=left;verticalAlign=middle;spacingLeft=4;spacingRight=4;overflow=hidden;points=[[0,0.5],[1,0.5]];portConstraint=eastwest;rotatable=0;whiteSpace=wrap;html=1;fontFamily=Helvetica;fontSize=12;fontColor=default;fontStyle=0;" vertex="1" parent="75jFnsoG7yitBAdSgV0w-42">
          <mxGeometry y="90" width="520" height="30" as="geometry" />
        </mxCell>
      </root>
    </mxGraphModel>
  </diagram>
</mxfile>
